# xmcd
#
# Track frame offsets:
#	150
#	10322
#	29681
#	48736
#	64898
#	86717
#	91697
#	102272
#	114641
#	119978
#	133506
#	152418
#	157205
#	172462
#	183708
#	193672
#
# Disc length: 2830 seconds
#
# Revision: 0
# Processed by: cddbd v1.5.1PL0 Copyright (c) Steve Scherf et al.
# Submitted via: dBpowerAMP V4.0
#
DISCID=ef0b0c10
DTITLE=The Game - you know what it is Vol.1
DYEAR=2003
DGENRE=Gangsta
TTITLE0=Straight Outta Compton
TTITLE1=Jackin 4 Beats (Feat. Fabolous)
TTITLE2=1 Nite Stand (Feat. E-40)
TTITLE3=Don't Make Me Klap
TTITLE4=100 Bars and Runnin
TTITLE5=Interview 1
TTITLE6=40 Cal
TTITLE7=44 Mag
TTITLE8=Interview 2
TTITLE9=Who Shot Me
TTITLE10=Street Anthem (Feat. Diplomats)
TTITLE11=Interview 3
TTITLE12=Can't Understand
TTITLE13=Sherm Stick
TTITLE14=How U Want That (Feat. Loon)
TTITLE15=Outro
EXTD=
EXTT0=
EXTT1=
EXTT2=
EXTT3=
EXTT4=
EXTT5=
EXTT6=
EXTT7=
EXTT8=
EXTT9=
EXTT10=
EXTT11=
EXTT12=
EXTT13=
EXTT14=
EXTT15=
PLAYORDER=
